# xmcd CD database file
#
# Track frame offsets:
#	150
#	21442
#	40777
#	60502
#
# Disc length: 1087 seconds
#
# Revision: 4
# Processed by: cddbd v1.5.1PL2 Copyright (c) Steve Scherf et al.
# Submitted via: CDex 1.51
#
DISCID=2b043d04
DTITLE=一青窈 - 一青窈+かざぐるま
DYEAR=2005
DGENRE=JPop
TTITLE0=かざぐるま
TTITLE1=ホチKiss
TTITLE2=空蝉
TTITLE3=かざぐるま
EXTD=YEAR: 2005
EXTT0=
EXTT1=
EXTT2=
EXTT3=
PLAYORDER=
